<svg xmlns="http://www.w3.org/2000/svg" viewBox="0 0 1572.32 267.78"><defs><style>.cls-1,.cls-8{fill:#00079a;}.cls-1,.cls-3{stroke:#fff;}.cls-1,.cls-3,.cls-8{stroke-miterlimit:10;}.cls-2,.cls-6,.cls-7{fill:#fff;}.cls-3{fill:#f5941d;}.cls-4{fill:#d99029;}.cls-5{fill:#016398;}.cls-6{font-size:176.16px;font-family:LibreFranklin-Bold, Libre Franklin;font-weight:700;}.cls-7{font-size:46.29px;font-family:Montserrat-Regular, Montserrat;}.cls-8{stroke:#21409a;stroke-width:5px;}</style></defs><title>Final Tour Chain Logo Long White</title><g id="Layer_2" data-name="Layer 2"><path class="cls-1" d="M172.9,116.19,196.53,93.3l-23.09-23a27.87,27.87,0,0,0-38.35,1.06L32.66,173.91a29.74,29.74,0,0,0-.77,37.54L137.17,316.79a30.68,30.68,0,0,0,38.21-.22Q227.51,264.28,279.64,212c2.63-3.22,7.6-10.27,7.14-19.24A24.36,24.36,0,0,0,280.09,177l-43.71-43.71Q225,145,213.51,156.8l33.93,33.85a5.54,5.54,0,0,1,1.29,3.45,5.47,5.47,0,0,1-1,3.23L162.18,283.2a9.61,9.61,0,0,1-5.47,2.06,9.75,9.75,0,0,1-6.63-2.3L66.5,199.45a12,12,0,0,1,.76-13.86l83-82.79A6.89,6.89,0,0,1,154.8,101,7.07,7.07,0,0,1,160,103.4Z" transform="translate(-25.1 -62.67)"/><path class="cls-2" d="M206.45,83.28" transform="translate(-25.1 -62.67)"/><path class="cls-3" d="M171.45,254.18l23.26-23.39-32-31.95a5.79,5.79,0,0,1-1.72-4,5.64,5.64,0,0,1,1.22-3.44c49.26-49.73,85.52-86,88.48-88.49a6.75,6.75,0,0,1,4-1.64,5.57,5.57,0,0,1,3.89,1.68l31.22,31.21L313,110.87,273.86,71.74A26.82,26.82,0,0,0,255.45,64c-9.44-.26-16.71,4.93-20,7.65l-103.83,104a27.46,27.46,0,0,0-7.79,15.26c-1.81,12.23,5.73,21.06,6.9,22.38Q151.1,233.73,171.45,254.18Z" transform="translate(-25.1 -62.67)"/><path class="cls-1" d="M289.8,134.12,313,110.87l64.89,64.95c3.13,3.55,7.19,9.39,7.75,17,.67,9.32-3.69,17.1-6.82,20.23L273,318.87a26.49,26.49,0,0,1-37.16-.67l-23.14-23,22.5-23.87,16.42,16.32a4.77,4.77,0,0,0,3,1.12,4.87,4.87,0,0,0,2.91-.91l90.22-90.1a4.63,4.63,0,0,0,1.06-2.8,4.7,4.7,0,0,0-1.35-3.07Z" transform="translate(-25.1 -62.67)"/><path class="cls-4" d="M324.76,306.32" transform="translate(-25.1 -62.67)"/><circle class="cls-3" cx="287.52" cy="193.24" r="16.29"/><path class="cls-5" d="M34,59.82" transform="translate(-25.1 -62.67)"/><path class="cls-4" d="M213.59,72.47" transform="translate(-25.1 -62.67)"/></g><g id="Layer_3" data-name="Layer 3"><text class="cls-6" transform="translate(360.53 171.52)">TOUR CHAIN</text></g><g id="Layer_4" data-name="Layer 4"><text class="cls-7" transform="translate(683.3 255.66)">Travel Business Solutions</text></g><g id="Layer_9" data-name="Layer 9"><line class="cls-8" x1="401.25" y1="242.96" x2="599.94" y2="242.96"/><line class="cls-8" x1="1329.53" y1="243.24" x2="1528.22" y2="243.24"/></g></svg>